# xmcd
# 
# Track frame offsets:
#     150
#     15942
#     35578
#     53553
#     74239
#     99741
#     111921
#     131142
#     151416
#     177180
#     194310
#     214652
# 
# Disc length: 3120
# 
# Revision: 2
# Processed by: cddbd v1.5.2PL0 Copyright (c) Steve Scherf et al.
# Submitted via: fre:ac v1.1beta1pre4
# 
DISCID=a90c2e0c
DTITLE=Dethklok - Dethalbum II
DYEAR=2009
DGENRE=Metal
TTITLE0=Bloodlines
TTITLE1=The Gears
TTITLE2=Burn the Earth
TTITLE3=Laser Canon Deth Sentence
TTITLE4=Black Fire Upon Us
TTITLE5=Dethsupport
TTITLE6=The Cyborg Slayers
TTITLE7=I Tamper with the Evidence at the Murder Site of Odin
TTITLE8=Murmaider II: The Water God
TTITLE9=Comet Song
TTITLE10=Symmetry
TTITLE11=Volcano
EXTD=
EXTT0=
EXTT1=
EXTT2=
EXTT3=
EXTT4=
EXTT5=
EXTT6=
EXTT7=
EXTT8=
EXTT9=
EXTT10=
EXTT11=
PLAYORDER=
